<svg xmlns="http://www.w3.org/2000/svg" width="1383" height="176" viewBox="0 0 1383 176">
<defs><filter id="glow" x="-60%" y="-60%" width="220%" height="220%"><feDropShadow dx="0" dy="0" stdDeviation="2.6" flood-color="#39d353" flood-opacity="0.75"/></filter></defs>
<rect x="1" y="1" width="1381" height="174" rx="16" fill="#0d1117" stroke="#1c2534"/>
<rect x="18" y="18" width="12" height="12" rx="3" fill="#161b22"/>
<rect x="18" y="33" width="12" height="12" rx="3" fill="#161b22"/>
<rect x="18" y="48" width="12" height="12" rx="3" fill="#161b22"/>
<rect x="18" y="63" width="12" height="12" rx="3" fill="#161b22"/>
<rect x="18" y="78" width="12" height="12" rx="3" fill="#161b22"/>
<rect x="18" y="93" width="12" height="12" rx="3" fill="#161b22"/>
<rect x="18" y="108" width="12" height="12" rx="3" fill="#161b22"/>
<rect x="33" y="18" width="12" height="12" rx="3" fill="#161b22"/>
<rect x="33" y="108" width="12" height="12" rx="3" fill="#161b22"/>
<rect x="48" y="18" width="12" height="12" rx="3" fill="#161b22"/>
<rect x="48" y="48" width="12" height="12" rx="3" fill="#161b22"/>
<rect x="48" y="78" width="12" height="12" rx="3" fill="#161b22"/>
<rect x="48" y="108" width="12" height="12" rx="3" fill="#161b22"/>
<rect x="63" y="18" width="12" height="12" rx="3" fill="#161b22"/>
<rect x="63" y="48" width="12" height="12" rx="3" fill="#161b22"/>
<rect x="63" y="78" width="12" height="12" rx="3" fill="#161b22"/>
<rect x="63" y="108" width="12" height="12" rx="3" fill="#161b22"/>
<rect x="78" y="18" width="12" height="12" rx="3" fill="#161b22"/>
<rect x="78" y="48" width="12" height="12" rx="3" fill="#161b22"/>
<rect x="78" y="78" width="12" height="12" rx="3" fill="#161b22"/>
<rect x="78" y="108" width="12" height="12" rx="3" fill="#161b22"/>
<rect x="93" y="18" width="12" height="12" rx="3" fill="#161b22"/>
<rect x="93" y="33" width="12" height="12" rx="3" fill="#161b22"/>
<rect x="93" y="63" width="12" height="12" rx="3" fill="#161b22"/>
<rect x="93" y="93" width="12" height="12" rx="3" fill="#161b22"/>
<rect x="93" y="108" width="12" height="12" rx="3" fill="#161b22"/>
<rect x="108" y="18" width="12" height="12" rx="3" fill="#161b22"/>
<rect x="108" y="33" width="12" height="12" rx="3" fill="#161b22"/>
<rect x="108" y="48" width="12" height="12" rx="3" fill="#161b22"/>
<rect x="108" y="63" width="12" height="12" rx="3" fill="#161b22"/>
<rect x="108" y="78" width="12" height="12" rx="3" fill="#161b22"/>
<rect x="108" y="93" width="12" height="12" rx="3" fill="#161b22"/>
<rect x="108" y="108" width="12" height="12" rx="3" fill="#161b22"/>
<rect x="123" y="18" width="12" height="12" rx="3" fill="#161b22"/>
<rect x="123" y="48" width="12" height="12" rx="3" fill="#161b22"/>
<rect x="123" y="63" width="12" height="12" rx="3" fill="#161b22"/>
<rect x="123" y="78" width="12" height="12" rx="3" fill="#161b22"/>
<rect x="123" y="108" width="12" height="12" rx="3" fill="#161b22"/>
<rect x="138" y="18" width="12" height="12" rx="3" fill="#161b22"/>
<rect x="138" y="48" width="12" height="12" rx="3" fill="#161b22"/>
<rect x="138" y="63" width="12" height="12" rx="3" fill="#161b22"/>
<rect x="138" y="78" width="12" height="12" rx="3" fill="#161b22"/>
<rect x="138" y="108" width="12" height="12" rx="3" fill="#161b22"/>
<rect x="153" y="18" width="12" height="12" rx="3" fill="#161b22"/>
<rect x="153" y="108" width="12" height="12" rx="3" fill="#161b22"/>
<rect x="168" y="18" width="12" height="12" rx="3" fill="#161b22"/>
<rect x="168" y="48" width="12" height="12" rx="3" fill="#161b22"/>
<rect x="168" y="63" width="12" height="12" rx="3" fill="#161b22"/>
<rect x="168" y="78" width="12" height="12" rx="3" fill="#161b22"/>
<rect x="168" y="108" width="12" height="12" rx="3" fill="#161b22"/>
<rect x="183" y="18" width="12" height="12" rx="3" fill="#161b22"/>
<rect x="183" y="48" width="12" height="12" rx="3" fill="#161b22"/>
<rect x="183" y="63" width="12" height="12" rx="3" fill="#161b22"/>
<rect x="183" y="78" width="12" height="12" rx="3" fill="#161b22"/>
<rect x="183" y="108" width="12" height="12" rx="3" fill="#161b22"/>
<rect x="198" y="18" width="12" height="12" rx="3" fill="#161b22"/>
<rect x="198" y="33" width="12" height="12" rx="3" fill="#161b22"/>
<rect x="198" y="48" width="12" height="12" rx="3" fill="#161b22"/>
<rect x="198" y="63" width="12" height="12" rx="3" fill="#161b22"/>
<rect x="198" y="78" width="12" height="12" rx="3" fill="#161b22"/>
<rect x="198" y="93" width="12" height="12" rx="3" fill="#161b22"/>
<rect x="198" y="108" width="12" height="12" rx="3" fill="#161b22"/>
<rect x="213" y="18" width="12" height="12" rx="3" fill="#161b22"/>
<rect x="213" y="78" width="12" height="12" rx="3" fill="#161b22"/>
<rect x="213" y="108" width="12" height="12" rx="3" fill="#161b22"/>
<rect x="228" y="18" width="12" height="12" rx="3" fill="#161b22"/>
<rect x="228" y="48" width="12" height="12" rx="3" fill="#161b22"/>
<rect x="228" y="78" width="12" height="12" rx="3" fill="#161b22"/>
<rect x="228" y="108" width="12" height="12" rx="3" fill="#161b22"/>
<rect x="243" y="18" width="12" height="12" rx="3" fill="#161b22"/>
<rect x="243" y="48" width="12" height="12" rx="3" fill="#161b22"/>
<rect x="243" y="78" width="12" height="12" rx="3" fill="#161b22"/>
<rect x="243" y="108" width="12" height="12" rx="3" fill="#161b22"/>
<rect x="258" y="18" width="12" height="12" rx="3" fill="#161b22"/>
<rect x="258" y="48" width="12" height="12" rx="3" fill="#161b22"/>
<rect x="258" y="78" width="12" height="12" rx="3" fill="#161b22"/>
<rect x="258" y="108" width="12" height="12" rx="3" fill="#161b22"/>
<rect x="273" y="18" width="12" height="12" rx="3" fill="#161b22"/>
<rect x="273" y="48" width="12" height="12" rx="3" fill="#161b22"/>
<rect x="273" y="108" width="12" height="12" rx="3" fill="#161b22"/>
<rect x="288" y="18" width="12" height="12" rx="3" fill="#161b22"/>
<rect x="288" y="33" width="12" height="12" rx="3" fill="#161b22"/>
<rect x="288" y="48" width="12" height="12" rx="3" fill="#161b22"/>
<rect x="288" y="63" width="12" height="12" rx="3" fill="#161b22"/>
<rect x="288" y="78" width="12" height="12" rx="3" fill="#161b22"/>
<rect x="288" y="93" width="12" height="12" rx="3" fill="#161b22"/>
<rect x="288" y="108" width="12" height="12" rx="3" fill="#161b22"/>
<rect x="303" y="18" width="12" height="12" rx="3" fill="#161b22"/>
<rect x="303" y="93" width="12" height="12" rx="3" fill="#161b22"/>
<rect x="303" y="108" width="12" height="12" rx="3" fill="#161b22"/>
<rect x="318" y="18" width="12" height="12" rx="3" fill="#161b22"/>
<rect x="318" y="33" width="12" height="12" rx="3" fill="#161b22"/>
<rect x="318" y="48" width="12" height="12" rx="3" fill="#161b22"/>
<rect x="318" y="63" width="12" height="12" rx="3" fill="#161b22"/>
<rect x="318" y="78" width="12" height="12" rx="3" fill="#161b22"/>
<rect x="318" y="108" width="12" height="12" rx="3" fill="#161b22"/>
<rect x="333" y="18" width="12" height="12" rx="3" fill="#161b22"/>
<rect x="333" y="33" width="12" height="12" rx="3" fill="#161b22"/>
<rect x="333" y="48" width="12" height="12" rx="3" fill="#161b22"/>
<rect x="333" y="93" width="12" height="12" rx="3" fill="#161b22"/>
<rect x="333" y="108" width="12" height="12" rx="3" fill="#161b22"/>
<rect x="348" y="18" width="12" height="12" rx="3" fill="#161b22"/>
<rect x="348" y="33" width="12" height="12" rx="3" fill="#161b22"/>
<rect x="348" y="48" width="12" height="12" rx="3" fill="#161b22"/>
<rect x="348" y="63" width="12" height="12" rx="3" fill="#161b22"/>
<rect x="348" y="78" width="12" height="12" rx="3" fill="#161b22"/>
<rect x="348" y="108" width="12" height="12" rx="3" fill="#161b22"/>
<rect x="363" y="18" width="12" height="12" rx="3" fill="#161b22"/>
<rect x="363" y="93" width="12" height="12" rx="3" fill="#161b22"/>
<rect x="363" y="108" width="12" height="12" rx="3" fill="#161b22"/>
<rect x="378" y="18" width="12" height="12" rx="3" fill="#161b22"/>
<rect x="378" y="33" width="12" height="12" rx="3" fill="#161b22"/>
<rect x="378" y="48" width="12" height="12" rx="3" fill="#161b22"/>
<rect x="378" y="63" width="12" height="12" rx="3" fill="#161b22"/>
<rect x="378" y="78" width="12" height="12" rx="3" fill="#161b22"/>
<rect x="378" y="93" width="12" height="12" rx="3" fill="#161b22"/>
<rect x="378" y="108" width="12" height="12" rx="3" fill="#161b22"/>
<rect x="393" y="18" width="12" height="12" rx="3" fill="#161b22"/>
<rect x="393" y="33" width="12" height="12" rx="3" fill="#161b22"/>
<rect x="393" y="108" width="12" height="12" rx="3" fill="#161b22"/>
<rect x="408" y="18" width="12" height="12" rx="3" fill="#161b22"/>
<rect x="408" y="48" width="12" height="12" rx="3" fill="#161b22"/>
<rect x="408" y="78" width="12" height="12" rx="3" fill="#161b22"/>
<rect x="408" y="93" width="12" height="12" rx="3" fill="#161b22"/>
<rect x="408" y="108" width="12" height="12" rx="3" fill="#161b22"/>
<rect x="423" y="18" width="12" height="12" rx="3" fill="#161b22"/>
<rect x="423" y="48" width="12" height="12" rx="3" fill="#161b22"/>
<rect x="423" y="78" width="12" height="12" rx="3" fill="#161b22"/>
<rect x="423" y="93" width="12" height="12" rx="3" fill="#161b22"/>
<rect x="423" y="108" width="12" height="12" rx="3" fill="#161b22"/>
<rect x="438" y="18" width="12" height="12" rx="3" fill="#161b22"/>
<rect x="438" y="48" width="12" height="12" rx="3" fill="#161b22"/>
<rect x="438" y="78" width="12" height="12" rx="3" fill="#161b22"/>
<rect x="438" y="93" width="12" height="12" rx="3" fill="#161b22"/>
<rect x="438" y="108" width="12" height="12" rx="3" fill="#161b22"/>
<rect x="453" y="18" width="12" height="12" rx="3" fill="#161b22"/>
<rect x="453" y="33" width="12" height="12" rx="3" fill="#161b22"/>
<rect x="453" y="108" width="12" height="12" rx="3" fill="#161b22"/>
<rect x="468" y="18" width="12" height="12" rx="3" fill="#161b22"/>
<rect x="468" y="33" width="12" height="12" rx="3" fill="#161b22"/>
<rect x="468" y="48" width="12" height="12" rx="3" fill="#161b22"/>
<rect x="468" y="63" width="12" height="12" rx="3" fill="#161b22"/>
<rect x="468" y="78" width="12" height="12" rx="3" fill="#161b22"/>
<rect x="468" y="93" width="12" height="12" rx="3" fill="#161b22"/>
<rect x="468" y="108" width="12" height="12" rx="3" fill="#161b22"/>
<rect x="483" y="18" width="12" height="12" rx="3" fill="#161b22"/>
<rect x="483" y="48" width="12" height="12" rx="3" fill="#161b22"/>
<rect x="483" y="63" width="12" height="12" rx="3" fill="#161b22"/>
<rect x="483" y="93" width="12" height="12" rx="3" fill="#161b22"/>
<rect x="483" y="108" width="12" height="12" rx="3" fill="#161b22"/>
<rect x="498" y="18" width="12" height="12" rx="3" fill="#161b22"/>
<rect x="498" y="48" width="12" height="12" rx="3" fill="#161b22"/>
<rect x="498" y="63" width="12" height="12" rx="3" fill="#161b22"/>
<rect x="498" y="78" width="12" height="12" rx="3" fill="#161b22"/>
<rect x="498" y="108" width="12" height="12" rx="3" fill="#161b22"/>
<rect x="513" y="18" width="12" height="12" rx="3" fill="#161b22"/>
<rect x="513" y="48" width="12" height="12" rx="3" fill="#161b22"/>
<rect x="513" y="63" width="12" height="12" rx="3" fill="#161b22"/>
<rect x="513" y="78" width="12" height="12" rx="3" fill="#161b22"/>
<rect x="513" y="108" width="12" height="12" rx="3" fill="#161b22"/>
<rect x="528" y="18" width="12" height="12" rx="3" fill="#161b22"/>
<rect x="528" y="93" width="12" height="12" rx="3" fill="#161b22"/>
<rect x="528" y="108" width="12" height="12" rx="3" fill="#161b22"/>
<rect x="543" y="18" width="12" height="12" rx="3" fill="#161b22"/>
<rect x="543" y="48" width="12" height="12" rx="3" fill="#161b22"/>
<rect x="543" y="63" width="12" height="12" rx="3" fill="#161b22"/>
<rect x="543" y="78" width="12" height="12" rx="3" fill="#161b22"/>
<rect x="543" y="93" width="12" height="12" rx="3" fill="#161b22"/>
<rect x="543" y="108" width="12" height="12" rx="3" fill="#161b22"/>
<rect x="558" y="18" width="12" height="12" rx="3" fill="#161b22"/>
<rect x="558" y="33" width="12" height="12" rx="3" fill="#161b22"/>
<rect x="558" y="48" width="12" height="12" rx="3" fill="#161b22"/>
<rect x="558" y="63" width="12" height="12" rx="3" fill="#161b22"/>
<rect x="558" y="78" width="12" height="12" rx="3" fill="#161b22"/>
<rect x="558" y="93" width="12" height="12" rx="3" fill="#161b22"/>
<rect x="558" y="108" width="12" height="12" rx="3" fill="#161b22"/>
<rect x="573" y="18" width="12" height="12" rx="3" fill="#161b22"/>
<rect x="573" y="48" width="12" height="12" rx="3" fill="#161b22"/>
<rect x="573" y="63" width="12" height="12" rx="3" fill="#161b22"/>
<rect x="573" y="78" width="12" height="12" rx="3" fill="#161b22"/>
<rect x="573" y="108" width="12" height="12" rx="3" fill="#161b22"/>
<rect x="588" y="18" width="12" height="12" rx="3" fill="#161b22"/>
<rect x="588" y="48" width="12" height="12" rx="3" fill="#161b22"/>
<rect x="588" y="63" width="12" height="12" rx="3" fill="#161b22"/>
<rect x="588" y="78" width="12" height="12" rx="3" fill="#161b22"/>
<rect x="588" y="108" width="12" height="12" rx="3" fill="#161b22"/>
<rect x="603" y="18" width="12" height="12" rx="3" fill="#161b22"/>
<rect x="603" y="108" width="12" height="12" rx="3" fill="#161b22"/>
<rect x="618" y="18" width="12" height="12" rx="3" fill="#161b22"/>
<rect x="618" y="48" width="12" height="12" rx="3" fill="#161b22"/>
<rect x="618" y="63" width="12" height="12" rx="3" fill="#161b22"/>
<rect x="618" y="78" width="12" height="12" rx="3" fill="#161b22"/>
<rect x="618" y="108" width="12" height="12" rx="3" fill="#161b22"/>
<rect x="633" y="18" width="12" height="12" rx="3" fill="#161b22"/>
<rect x="633" y="48" width="12" height="12" rx="3" fill="#161b22"/>
<rect x="633" y="63" width="12" height="12" rx="3" fill="#161b22"/>
<rect x="633" y="78" width="12" height="12" rx="3" fill="#161b22"/>
<rect x="633" y="108" width="12" height="12" rx="3" fill="#161b22"/>
<rect x="648" y="18" width="12" height="12" rx="3" fill="#161b22"/>
<rect x="648" y="33" width="12" height="12" rx="3" fill="#161b22"/>
<rect x="648" y="48" width="12" height="12" rx="3" fill="#161b22"/>
<rect x="648" y="63" width="12" height="12" rx="3" fill="#161b22"/>
<rect x="648" y="78" width="12" height="12" rx="3" fill="#161b22"/>
<rect x="648" y="93" width="12" height="12" rx="3" fill="#161b22"/>
<rect x="648" y="108" width="12" height="12" rx="3" fill="#161b22"/>
<rect x="663" y="18" width="12" height="12" rx="3" fill="#161b22"/>
<rect x="663" y="48" width="12" height="12" rx="3" fill="#161b22"/>
<rect x="663" y="63" width="12" height="12" rx="3" fill="#161b22"/>
<rect x="663" y="78" width="12" height="12" rx="3" fill="#161b22"/>
<rect x="663" y="93" width="12" height="12" rx="3" fill="#161b22"/>
<rect x="663" y="108" width="12" height="12" rx="3" fill="#161b22"/>
<rect x="678" y="18" width="12" height="12" rx="3" fill="#161b22"/>
<rect x="678" y="48" width="12" height="12" rx="3" fill="#161b22"/>
<rect x="678" y="63" width="12" height="12" rx="3" fill="#161b22"/>
<rect x="678" y="78" width="12" height="12" rx="3" fill="#161b22"/>
<rect x="678" y="93" width="12" height="12" rx="3" fill="#161b22"/>
<rect x="678" y="108" width="12" height="12" rx="3" fill="#161b22"/>
<rect x="693" y="18" width="12" height="12" rx="3" fill="#161b22"/>
<rect x="693" y="108" width="12" height="12" rx="3" fill="#161b22"/>
<rect x="708" y="18" width="12" height="12" rx="3" fill="#161b22"/>
<rect x="708" y="48" width="12" height="12" rx="3" fill="#161b22"/>
<rect x="708" y="63" width="12" height="12" rx="3" fill="#161b22"/>
<rect x="708" y="78" width="12" height="12" rx="3" fill="#161b22"/>
<rect x="708" y="93" width="12" height="12" rx="3" fill="#161b22"/>
<rect x="708" y="108" width="12" height="12" rx="3" fill="#161b22"/>
<rect x="723" y="18" width="12" height="12" rx="3" fill="#161b22"/>
<rect x="723" y="48" width="12" height="12" rx="3" fill="#161b22"/>
<rect x="723" y="63" width="12" height="12" rx="3" fill="#161b22"/>
<rect x="723" y="78" width="12" height="12" rx="3" fill="#161b22"/>
<rect x="723" y="93" width="12" height="12" rx="3" fill="#161b22"/>
<rect x="723" y="108" width="12" height="12" rx="3" fill="#161b22"/>
<rect x="738" y="18" width="12" height="12" rx="3" fill="#161b22"/>
<rect x="738" y="33" width="12" height="12" rx="3" fill="#161b22"/>
<rect x="738" y="48" width="12" height="12" rx="3" fill="#161b22"/>
<rect x="738" y="63" width="12" height="12" rx="3" fill="#161b22"/>
<rect x="738" y="78" width="12" height="12" rx="3" fill="#161b22"/>
<rect x="738" y="93" width="12" height="12" rx="3" fill="#161b22"/>
<rect x="738" y="108" width="12" height="12" rx="3" fill="#161b22"/>
<rect x="753" y="18" width="12" height="12" rx="3" fill="#161b22"/>
<rect x="753" y="33" width="12" height="12" rx="3" fill="#161b22"/>
<rect x="753" y="48" width="12" height="12" rx="3" fill="#161b22"/>
<rect x="753" y="63" width="12" height="12" rx="3" fill="#161b22"/>
<rect x="753" y="78" width="12" height="12" rx="3" fill="#161b22"/>
<rect x="753" y="93" width="12" height="12" rx="3" fill="#161b22"/>
<rect x="753" y="108" width="12" height="12" rx="3" fill="#161b22"/>
<rect x="768" y="18" width="12" height="12" rx="3" fill="#161b22"/>
<rect x="768" y="33" width="12" height="12" rx="3" fill="#161b22"/>
<rect x="768" y="48" width="12" height="12" rx="3" fill="#161b22"/>
<rect x="768" y="63" width="12" height="12" rx="3" fill="#161b22"/>
<rect x="768" y="78" width="12" height="12" rx="3" fill="#161b22"/>
<rect x="768" y="93" width="12" height="12" rx="3" fill="#161b22"/>
<rect x="768" y="108" width="12" height="12" rx="3" fill="#161b22"/>
<rect x="783" y="18" width="12" height="12" rx="3" fill="#161b22"/>
<rect x="783" y="33" width="12" height="12" rx="3" fill="#161b22"/>
<rect x="783" y="48" width="12" height="12" rx="3" fill="#161b22"/>
<rect x="783" y="63" width="12" height="12" rx="3" fill="#161b22"/>
<rect x="783" y="78" width="12" height="12" rx="3" fill="#161b22"/>
<rect x="783" y="93" width="12" height="12" rx="3" fill="#161b22"/>
<rect x="783" y="108" width="12" height="12" rx="3" fill="#161b22"/>
<rect x="798" y="18" width="12" height="12" rx="3" fill="#161b22"/>
<rect x="798" y="33" width="12" height="12" rx="3" fill="#161b22"/>
<rect x="798" y="48" width="12" height="12" rx="3" fill="#161b22"/>
<rect x="798" y="63" width="12" height="12" rx="3" fill="#161b22"/>
<rect x="798" y="78" width="12" height="12" rx="3" fill="#161b22"/>
<rect x="798" y="93" width="12" height="12" rx="3" fill="#161b22"/>
<rect x="798" y="108" width="12" height="12" rx="3" fill="#161b22"/>
<rect x="813" y="18" width="12" height="12" rx="3" fill="#161b22"/>
<rect x="813" y="108" width="12" height="12" rx="3" fill="#161b22"/>
<rect x="828" y="18" width="12" height="12" rx="3" fill="#161b22"/>
<rect x="828" y="48" width="12" height="12" rx="3" fill="#161b22"/>
<rect x="828" y="78" width="12" height="12" rx="3" fill="#161b22"/>
<rect x="828" y="108" width="12" height="12" rx="3" fill="#161b22"/>
<rect x="843" y="18" width="12" height="12" rx="3" fill="#161b22"/>
<rect x="843" y="48" width="12" height="12" rx="3" fill="#161b22"/>
<rect x="843" y="78" width="12" height="12" rx="3" fill="#161b22"/>
<rect x="843" y="108" width="12" height="12" rx="3" fill="#161b22"/>
<rect x="858" y="18" width="12" height="12" rx="3" fill="#161b22"/>
<rect x="858" y="48" width="12" height="12" rx="3" fill="#161b22"/>
<rect x="858" y="78" width="12" height="12" rx="3" fill="#161b22"/>
<rect x="858" y="108" width="12" height="12" rx="3" fill="#161b22"/>
<rect x="873" y="18" width="12" height="12" rx="3" fill="#161b22"/>
<rect x="873" y="33" width="12" height="12" rx="3" fill="#161b22"/>
<rect x="873" y="63" width="12" height="12" rx="3" fill="#161b22"/>
<rect x="873" y="93" width="12" height="12" rx="3" fill="#161b22"/>
<rect x="873" y="108" width="12" height="12" rx="3" fill="#161b22"/>
<rect x="888" y="18" width="12" height="12" rx="3" fill="#161b22"/>
<rect x="888" y="33" width="12" height="12" rx="3" fill="#161b22"/>
<rect x="888" y="48" width="12" height="12" rx="3" fill="#161b22"/>
<rect x="888" y="63" width="12" height="12" rx="3" fill="#161b22"/>
<rect x="888" y="78" width="12" height="12" rx="3" fill="#161b22"/>
<rect x="888" y="93" width="12" height="12" rx="3" fill="#161b22"/>
<rect x="888" y="108" width="12" height="12" rx="3" fill="#161b22"/>
<rect x="903" y="18" width="12" height="12" rx="3" fill="#161b22"/>
<rect x="903" y="108" width="12" height="12" rx="3" fill="#161b22"/>
<rect x="918" y="18" width="12" height="12" rx="3" fill="#161b22"/>
<rect x="918" y="48" width="12" height="12" rx="3" fill="#161b22"/>
<rect x="918" y="78" width="12" height="12" rx="3" fill="#161b22"/>
<rect x="918" y="108" width="12" height="12" rx="3" fill="#161b22"/>
<rect x="933" y="18" width="12" height="12" rx="3" fill="#161b22"/>
<rect x="933" y="48" width="12" height="12" rx="3" fill="#161b22"/>
<rect x="933" y="78" width="12" height="12" rx="3" fill="#161b22"/>
<rect x="933" y="108" width="12" height="12" rx="3" fill="#161b22"/>
<rect x="948" y="18" width="12" height="12" rx="3" fill="#161b22"/>
<rect x="948" y="48" width="12" height="12" rx="3" fill="#161b22"/>
<rect x="948" y="78" width="12" height="12" rx="3" fill="#161b22"/>
<rect x="948" y="108" width="12" height="12" rx="3" fill="#161b22"/>
<rect x="963" y="18" width="12" height="12" rx="3" fill="#161b22"/>
<rect x="963" y="48" width="12" height="12" rx="3" fill="#161b22"/>
<rect x="963" y="63" width="12" height="12" rx="3" fill="#161b22"/>
<rect x="963" y="78" width="12" height="12" rx="3" fill="#161b22"/>
<rect x="963" y="108" width="12" height="12" rx="3" fill="#161b22"/>
<rect x="978" y="18" width="12" height="12" rx="3" fill="#161b22"/>
<rect x="978" y="33" width="12" height="12" rx="3" fill="#161b22"/>
<rect x="978" y="48" width="12" height="12" rx="3" fill="#161b22"/>
<rect x="978" y="63" width="12" height="12" rx="3" fill="#161b22"/>
<rect x="978" y="78" width="12" height="12" rx="3" fill="#161b22"/>
<rect x="978" y="93" width="12" height="12" rx="3" fill="#161b22"/>
<rect x="978" y="108" width="12" height="12" rx="3" fill="#161b22"/>
<rect x="993" y="18" width="12" height="12" rx="3" fill="#161b22"/>
<rect x="993" y="108" width="12" height="12" rx="3" fill="#161b22"/>
<rect x="1008" y="18" width="12" height="12" rx="3" fill="#161b22"/>
<rect x="1008" y="33" width="12" height="12" rx="3" fill="#161b22"/>
<rect x="1008" y="48" width="12" height="12" rx="3" fill="#161b22"/>
<rect x="1008" y="78" width="12" height="12" rx="3" fill="#161b22"/>
<rect x="1008" y="93" width="12" height="12" rx="3" fill="#161b22"/>
<rect x="1008" y="108" width="12" height="12" rx="3" fill="#161b22"/>
<rect x="1023" y="18" width="12" height="12" rx="3" fill="#161b22"/>
<rect x="1023" y="33" width="12" height="12" rx="3" fill="#161b22"/>
<rect x="1023" y="48" width="12" height="12" rx="3" fill="#161b22"/>
<rect x="1023" y="78" width="12" height="12" rx="3" fill="#161b22"/>
<rect x="1023" y="93" width="12" height="12" rx="3" fill="#161b22"/>
<rect x="1023" y="108" width="12" height="12" rx="3" fill="#161b22"/>
<rect x="1038" y="18" width="12" height="12" rx="3" fill="#161b22"/>
<rect x="1038" y="33" width="12" height="12" rx="3" fill="#161b22"/>
<rect x="1038" y="48" width="12" height="12" rx="3" fill="#161b22"/>
<rect x="1038" y="78" width="12" height="12" rx="3" fill="#161b22"/>
<rect x="1038" y="93" width="12" height="12" rx="3" fill="#161b22"/>
<rect x="1038" y="108" width="12" height="12" rx="3" fill="#161b22"/>
<rect x="1053" y="18" width="12" height="12" rx="3" fill="#161b22"/>
<rect x="1053" y="108" width="12" height="12" rx="3" fill="#161b22"/>
<rect x="1068" y="18" width="12" height="12" rx="3" fill="#161b22"/>
<rect x="1068" y="33" width="12" height="12" rx="3" fill="#161b22"/>
<rect x="1068" y="48" width="12" height="12" rx="3" fill="#161b22"/>
<rect x="1068" y="63" width="12" height="12" rx="3" fill="#161b22"/>
<rect x="1068" y="78" width="12" height="12" rx="3" fill="#161b22"/>
<rect x="1068" y="93" width="12" height="12" rx="3" fill="#161b22"/>
<rect x="1068" y="108" width="12" height="12" rx="3" fill="#161b22"/>
<rect x="1083" y="18" width="12" height="12" rx="3" fill="#161b22"/>
<rect x="1083" y="108" width="12" height="12" rx="3" fill="#161b22"/>
<rect x="1098" y="18" width="12" height="12" rx="3" fill="#161b22"/>
<rect x="1098" y="48" width="12" height="12" rx="3" fill="#161b22"/>
<rect x="1098" y="78" width="12" height="12" rx="3" fill="#161b22"/>
<rect x="1098" y="108" width="12" height="12" rx="3" fill="#161b22"/>
<rect x="1113" y="18" width="12" height="12" rx="3" fill="#161b22"/>
<rect x="1113" y="48" width="12" height="12" rx="3" fill="#161b22"/>
<rect x="1113" y="78" width="12" height="12" rx="3" fill="#161b22"/>
<rect x="1113" y="108" width="12" height="12" rx="3" fill="#161b22"/>
<rect x="1128" y="18" width="12" height="12" rx="3" fill="#161b22"/>
<rect x="1128" y="48" width="12" height="12" rx="3" fill="#161b22"/>
<rect x="1128" y="78" width="12" height="12" rx="3" fill="#161b22"/>
<rect x="1128" y="108" width="12" height="12" rx="3" fill="#161b22"/>
<rect x="1143" y="18" width="12" height="12" rx="3" fill="#161b22"/>
<rect x="1143" y="48" width="12" height="12" rx="3" fill="#161b22"/>
<rect x="1143" y="63" width="12" height="12" rx="3" fill="#161b22"/>
<rect x="1143" y="78" width="12" height="12" rx="3" fill="#161b22"/>
<rect x="1143" y="108" width="12" height="12" rx="3" fill="#161b22"/>
<rect x="1158" y="18" width="12" height="12" rx="3" fill="#161b22"/>
<rect x="1158" y="33" width="12" height="12" rx="3" fill="#161b22"/>
<rect x="1158" y="48" width="12" height="12" rx="3" fill="#161b22"/>
<rect x="1158" y="63" width="12" height="12" rx="3" fill="#161b22"/>
<rect x="1158" y="78" width="12" height="12" rx="3" fill="#161b22"/>
<rect x="1158" y="93" width="12" height="12" rx="3" fill="#161b22"/>
<rect x="1158" y="108" width="12" height="12" rx="3" fill="#161b22"/>
<rect x="1173" y="18" width="12" height="12" rx="3" fill="#161b22"/>
<rect x="1173" y="108" width="12" height="12" rx="3" fill="#161b22"/>
<rect x="1188" y="18" width="12" height="12" rx="3" fill="#161b22"/>
<rect x="1188" y="48" width="12" height="12" rx="3" fill="#161b22"/>
<rect x="1188" y="78" width="12" height="12" rx="3" fill="#161b22"/>
<rect x="1188" y="93" width="12" height="12" rx="3" fill="#161b22"/>
<rect x="1188" y="108" width="12" height="12" rx="3" fill="#161b22"/>
<rect x="1203" y="18" width="12" height="12" rx="3" fill="#161b22"/>
<rect x="1203" y="48" width="12" height="12" rx="3" fill="#161b22"/>
<rect x="1203" y="78" width="12" height="12" rx="3" fill="#161b22"/>
<rect x="1203" y="93" width="12" height="12" rx="3" fill="#161b22"/>
<rect x="1203" y="108" width="12" height="12" rx="3" fill="#161b22"/>
<rect x="1218" y="18" width="12" height="12" rx="3" fill="#161b22"/>
<rect x="1218" y="48" width="12" height="12" rx="3" fill="#161b22"/>
<rect x="1218" y="93" width="12" height="12" rx="3" fill="#161b22"/>
<rect x="1218" y="108" width="12" height="12" rx="3" fill="#161b22"/>
<rect x="1233" y="18" width="12" height="12" rx="3" fill="#161b22"/>
<rect x="1233" y="33" width="12" height="12" rx="3" fill="#161b22"/>
<rect x="1233" y="63" width="12" height="12" rx="3" fill="#161b22"/>
<rect x="1233" y="78" width="12" height="12" rx="3" fill="#161b22"/>
<rect x="1233" y="108" width="12" height="12" rx="3" fill="#161b22"/>
<rect x="1248" y="18" width="12" height="12" rx="3" fill="#161b22"/>
<rect x="1248" y="33" width="12" height="12" rx="3" fill="#161b22"/>
<rect x="1248" y="48" width="12" height="12" rx="3" fill="#161b22"/>
<rect x="1248" y="63" width="12" height="12" rx="3" fill="#161b22"/>
<rect x="1248" y="78" width="12" height="12" rx="3" fill="#161b22"/>
<rect x="1248" y="93" width="12" height="12" rx="3" fill="#161b22"/>
<rect x="1248" y="108" width="12" height="12" rx="3" fill="#161b22"/>
<rect x="1263" y="18" width="12" height="12" rx="3" fill="#161b22"/>
<rect x="1263" y="33" width="12" height="12" rx="3" fill="#161b22"/>
<rect x="1263" y="108" width="12" height="12" rx="3" fill="#161b22"/>
<rect x="1278" y="18" width="12" height="12" rx="3" fill="#161b22"/>
<rect x="1278" y="48" width="12" height="12" rx="3" fill="#161b22"/>
<rect x="1278" y="78" width="12" height="12" rx="3" fill="#161b22"/>
<rect x="1278" y="93" width="12" height="12" rx="3" fill="#161b22"/>
<rect x="1278" y="108" width="12" height="12" rx="3" fill="#161b22"/>
<rect x="1293" y="18" width="12" height="12" rx="3" fill="#161b22"/>
<rect x="1293" y="48" width="12" height="12" rx="3" fill="#161b22"/>
<rect x="1293" y="78" width="12" height="12" rx="3" fill="#161b22"/>
<rect x="1293" y="93" width="12" height="12" rx="3" fill="#161b22"/>
<rect x="1293" y="108" width="12" height="12" rx="3" fill="#161b22"/>
<rect x="1308" y="18" width="12" height="12" rx="3" fill="#161b22"/>
<rect x="1308" y="48" width="12" height="12" rx="3" fill="#161b22"/>
<rect x="1308" y="78" width="12" height="12" rx="3" fill="#161b22"/>
<rect x="1308" y="93" width="12" height="12" rx="3" fill="#161b22"/>
<rect x="1308" y="108" width="12" height="12" rx="3" fill="#161b22"/>
<rect x="1323" y="18" width="12" height="12" rx="3" fill="#161b22"/>
<rect x="1323" y="33" width="12" height="12" rx="3" fill="#161b22"/>
<rect x="1323" y="108" width="12" height="12" rx="3" fill="#161b22"/>
<rect x="1338" y="18" width="12" height="12" rx="3" fill="#161b22"/>
<rect x="1338" y="33" width="12" height="12" rx="3" fill="#161b22"/>
<rect x="1338" y="48" width="12" height="12" rx="3" fill="#161b22"/>
<rect x="1338" y="63" width="12" height="12" rx="3" fill="#161b22"/>
<rect x="1338" y="78" width="12" height="12" rx="3" fill="#161b22"/>
<rect x="1338" y="93" width="12" height="12" rx="3" fill="#161b22"/>
<rect x="1338" y="108" width="12" height="12" rx="3" fill="#161b22"/>
<rect x="1353" y="18" width="12" height="12" rx="3" fill="#161b22"/>
<rect x="1353" y="33" width="12" height="12" rx="3" fill="#161b22"/>
<rect x="1353" y="48" width="12" height="12" rx="3" fill="#161b22"/>
<rect x="1353" y="63" width="12" height="12" rx="3" fill="#161b22"/>
<rect x="1353" y="78" width="12" height="12" rx="3" fill="#161b22"/>
<rect x="1353" y="93" width="12" height="12" rx="3" fill="#161b22"/>
<rect x="1353" y="108" width="12" height="12" rx="3" fill="#161b22"/>
<g filter="url(#glow)">
<rect x="33" y="33" width="12" height="12" rx="3" fill="#26a641"/>
<rect x="33" y="48" width="12" height="12" rx="3" fill="#006d32"/>
<rect x="33" y="63" width="12" height="12" rx="3" fill="#26a641"/>
<rect x="33" y="78" width="12" height="12" rx="3" fill="#39d353"/>
<rect x="33" y="93" width="12" height="12" rx="3" fill="#26a641"/>
<rect x="48" y="33" width="12" height="12" rx="3" fill="#39d353"/>
<rect x="48" y="63" width="12" height="12" rx="3" fill="#006d32"/>
<rect x="48" y="93" width="12" height="12" rx="3" fill="#39d353"/>
<rect x="63" y="33" width="12" height="12" rx="3" fill="#26a641"/>
<rect x="63" y="63" width="12" height="12" rx="3" fill="#26a641"/>
<rect x="63" y="93" width="12" height="12" rx="3" fill="#26a641"/>
<rect x="78" y="33" width="12" height="12" rx="3" fill="#006d32"/>
<rect x="78" y="63" width="12" height="12" rx="3" fill="#39d353"/>
<rect x="78" y="93" width="12" height="12" rx="3" fill="#006d32"/>
<rect x="93" y="48" width="12" height="12" rx="3" fill="#006d32"/>
<rect x="93" y="78" width="12" height="12" rx="3" fill="#39d353"/>
<rect x="123" y="33" width="12" height="12" rx="3" fill="#26a641"/>
<rect x="123" y="93" width="12" height="12" rx="3" fill="#26a641"/>
<rect x="138" y="33" width="12" height="12" rx="3" fill="#006d32"/>
<rect x="138" y="93" width="12" height="12" rx="3" fill="#006d32"/>
<rect x="153" y="33" width="12" height="12" rx="3" fill="#26a641"/>
<rect x="153" y="48" width="12" height="12" rx="3" fill="#006d32"/>
<rect x="153" y="63" width="12" height="12" rx="3" fill="#26a641"/>
<rect x="153" y="78" width="12" height="12" rx="3" fill="#39d353"/>
<rect x="153" y="93" width="12" height="12" rx="3" fill="#26a641"/>
<rect x="168" y="33" width="12" height="12" rx="3" fill="#39d353"/>
<rect x="168" y="93" width="12" height="12" rx="3" fill="#39d353"/>
<rect x="183" y="33" width="12" height="12" rx="3" fill="#26a641"/>
<rect x="183" y="93" width="12" height="12" rx="3" fill="#26a641"/>
<rect x="213" y="33" width="12" height="12" rx="3" fill="#26a641"/>
<rect x="213" y="48" width="12" height="12" rx="3" fill="#006d32"/>
<rect x="213" y="63" width="12" height="12" rx="3" fill="#26a641"/>
<rect x="213" y="93" width="12" height="12" rx="3" fill="#26a641"/>
<rect x="228" y="33" width="12" height="12" rx="3" fill="#39d353"/>
<rect x="228" y="63" width="12" height="12" rx="3" fill="#006d32"/>
<rect x="228" y="93" width="12" height="12" rx="3" fill="#39d353"/>
<rect x="243" y="33" width="12" height="12" rx="3" fill="#26a641"/>
<rect x="243" y="63" width="12" height="12" rx="3" fill="#26a641"/>
<rect x="243" y="93" width="12" height="12" rx="3" fill="#26a641"/>
<rect x="258" y="33" width="12" height="12" rx="3" fill="#006d32"/>
<rect x="258" y="63" width="12" height="12" rx="3" fill="#39d353"/>
<rect x="258" y="93" width="12" height="12" rx="3" fill="#006d32"/>
<rect x="273" y="33" width="12" height="12" rx="3" fill="#26a641"/>
<rect x="273" y="63" width="12" height="12" rx="3" fill="#26a641"/>
<rect x="273" y="78" width="12" height="12" rx="3" fill="#39d353"/>
<rect x="273" y="93" width="12" height="12" rx="3" fill="#26a641"/>
<rect x="303" y="33" width="12" height="12" rx="3" fill="#26a641"/>
<rect x="303" y="48" width="12" height="12" rx="3" fill="#39d353"/>
<rect x="303" y="63" width="12" height="12" rx="3" fill="#26a641"/>
<rect x="303" y="78" width="12" height="12" rx="3" fill="#006d32"/>
<rect x="318" y="93" width="12" height="12" rx="3" fill="#006d32"/>
<rect x="333" y="63" width="12" height="12" rx="3" fill="#26a641"/>
<rect x="333" y="78" width="12" height="12" rx="3" fill="#39d353"/>
<rect x="348" y="93" width="12" height="12" rx="3" fill="#39d353"/>
<rect x="363" y="33" width="12" height="12" rx="3" fill="#26a641"/>
<rect x="363" y="48" width="12" height="12" rx="3" fill="#39d353"/>
<rect x="363" y="63" width="12" height="12" rx="3" fill="#26a641"/>
<rect x="363" y="78" width="12" height="12" rx="3" fill="#006d32"/>
<rect x="393" y="48" width="12" height="12" rx="3" fill="#006d32"/>
<rect x="393" y="63" width="12" height="12" rx="3" fill="#26a641"/>
<rect x="393" y="78" width="12" height="12" rx="3" fill="#39d353"/>
<rect x="393" y="93" width="12" height="12" rx="3" fill="#26a641"/>
<rect x="408" y="33" width="12" height="12" rx="3" fill="#39d353"/>
<rect x="408" y="63" width="12" height="12" rx="3" fill="#006d32"/>
<rect x="423" y="33" width="12" height="12" rx="3" fill="#26a641"/>
<rect x="423" y="63" width="12" height="12" rx="3" fill="#26a641"/>
<rect x="438" y="33" width="12" height="12" rx="3" fill="#006d32"/>
<rect x="438" y="63" width="12" height="12" rx="3" fill="#39d353"/>
<rect x="453" y="48" width="12" height="12" rx="3" fill="#006d32"/>
<rect x="453" y="63" width="12" height="12" rx="3" fill="#26a641"/>
<rect x="453" y="78" width="12" height="12" rx="3" fill="#39d353"/>
<rect x="453" y="93" width="12" height="12" rx="3" fill="#26a641"/>
<rect x="483" y="33" width="12" height="12" rx="3" fill="#26a641"/>
<rect x="483" y="78" width="12" height="12" rx="3" fill="#006d32"/>
<rect x="498" y="33" width="12" height="12" rx="3" fill="#006d32"/>
<rect x="498" y="93" width="12" height="12" rx="3" fill="#006d32"/>
<rect x="513" y="33" width="12" height="12" rx="3" fill="#26a641"/>
<rect x="513" y="93" width="12" height="12" rx="3" fill="#26a641"/>
<rect x="528" y="33" width="12" height="12" rx="3" fill="#39d353"/>
<rect x="528" y="48" width="12" height="12" rx="3" fill="#26a641"/>
<rect x="528" y="63" width="12" height="12" rx="3" fill="#006d32"/>
<rect x="528" y="78" width="12" height="12" rx="3" fill="#26a641"/>
<rect x="543" y="33" width="12" height="12" rx="3" fill="#26a641"/>
<rect x="573" y="33" width="12" height="12" rx="3" fill="#26a641"/>
<rect x="573" y="93" width="12" height="12" rx="3" fill="#26a641"/>
<rect x="588" y="33" width="12" height="12" rx="3" fill="#39d353"/>
<rect x="588" y="93" width="12" height="12" rx="3" fill="#39d353"/>
<rect x="603" y="33" width="12" height="12" rx="3" fill="#26a641"/>
<rect x="603" y="48" width="12" height="12" rx="3" fill="#39d353"/>
<rect x="603" y="63" width="12" height="12" rx="3" fill="#26a641"/>
<rect x="603" y="78" width="12" height="12" rx="3" fill="#006d32"/>
<rect x="603" y="93" width="12" height="12" rx="3" fill="#26a641"/>
<rect x="618" y="33" width="12" height="12" rx="3" fill="#006d32"/>
<rect x="618" y="93" width="12" height="12" rx="3" fill="#006d32"/>
<rect x="633" y="33" width="12" height="12" rx="3" fill="#26a641"/>
<rect x="633" y="93" width="12" height="12" rx="3" fill="#26a641"/>
<rect x="663" y="33" width="12" height="12" rx="3" fill="#26a641"/>
<rect x="678" y="33" width="12" height="12" rx="3" fill="#006d32"/>
<rect x="693" y="33" width="12" height="12" rx="3" fill="#26a641"/>
<rect x="693" y="48" width="12" height="12" rx="3" fill="#006d32"/>
<rect x="693" y="63" width="12" height="12" rx="3" fill="#26a641"/>
<rect x="693" y="78" width="12" height="12" rx="3" fill="#39d353"/>
<rect x="693" y="93" width="12" height="12" rx="3" fill="#26a641"/>
<rect x="708" y="33" width="12" height="12" rx="3" fill="#39d353"/>
<rect x="723" y="33" width="12" height="12" rx="3" fill="#26a641"/>
<rect x="813" y="33" width="12" height="12" rx="3" fill="#26a641"/>
<rect x="813" y="48" width="12" height="12" rx="3" fill="#006d32"/>
<rect x="813" y="63" width="12" height="12" rx="3" fill="#26a641"/>
<rect x="813" y="78" width="12" height="12" rx="3" fill="#39d353"/>
<rect x="813" y="93" width="12" height="12" rx="3" fill="#26a641"/>
<rect x="828" y="33" width="12" height="12" rx="3" fill="#39d353"/>
<rect x="828" y="63" width="12" height="12" rx="3" fill="#006d32"/>
<rect x="828" y="93" width="12" height="12" rx="3" fill="#39d353"/>
<rect x="843" y="33" width="12" height="12" rx="3" fill="#26a641"/>
<rect x="843" y="63" width="12" height="12" rx="3" fill="#26a641"/>
<rect x="843" y="93" width="12" height="12" rx="3" fill="#26a641"/>
<rect x="858" y="33" width="12" height="12" rx="3" fill="#006d32"/>
<rect x="858" y="63" width="12" height="12" rx="3" fill="#39d353"/>
<rect x="858" y="93" width="12" height="12" rx="3" fill="#006d32"/>
<rect x="873" y="48" width="12" height="12" rx="3" fill="#006d32"/>
<rect x="873" y="78" width="12" height="12" rx="3" fill="#39d353"/>
<rect x="903" y="33" width="12" height="12" rx="3" fill="#26a641"/>
<rect x="903" y="48" width="12" height="12" rx="3" fill="#39d353"/>
<rect x="903" y="63" width="12" height="12" rx="3" fill="#26a641"/>
<rect x="903" y="78" width="12" height="12" rx="3" fill="#006d32"/>
<rect x="903" y="93" width="12" height="12" rx="3" fill="#26a641"/>
<rect x="918" y="33" width="12" height="12" rx="3" fill="#006d32"/>
<rect x="918" y="63" width="12" height="12" rx="3" fill="#39d353"/>
<rect x="918" y="93" width="12" height="12" rx="3" fill="#006d32"/>
<rect x="933" y="33" width="12" height="12" rx="3" fill="#26a641"/>
<rect x="933" y="63" width="12" height="12" rx="3" fill="#26a641"/>
<rect x="933" y="93" width="12" height="12" rx="3" fill="#26a641"/>
<rect x="948" y="33" width="12" height="12" rx="3" fill="#39d353"/>
<rect x="948" y="63" width="12" height="12" rx="3" fill="#006d32"/>
<rect x="948" y="93" width="12" height="12" rx="3" fill="#39d353"/>
<rect x="963" y="33" width="12" height="12" rx="3" fill="#26a641"/>
<rect x="963" y="93" width="12" height="12" rx="3" fill="#26a641"/>
<rect x="993" y="33" width="12" height="12" rx="3" fill="#26a641"/>
<rect x="993" y="48" width="12" height="12" rx="3" fill="#006d32"/>
<rect x="993" y="63" width="12" height="12" rx="3" fill="#26a641"/>
<rect x="993" y="78" width="12" height="12" rx="3" fill="#39d353"/>
<rect x="993" y="93" width="12" height="12" rx="3" fill="#26a641"/>
<rect x="1008" y="63" width="12" height="12" rx="3" fill="#006d32"/>
<rect x="1023" y="63" width="12" height="12" rx="3" fill="#26a641"/>
<rect x="1038" y="63" width="12" height="12" rx="3" fill="#39d353"/>
<rect x="1053" y="33" width="12" height="12" rx="3" fill="#26a641"/>
<rect x="1053" y="48" width="12" height="12" rx="3" fill="#006d32"/>
<rect x="1053" y="63" width="12" height="12" rx="3" fill="#26a641"/>
<rect x="1053" y="78" width="12" height="12" rx="3" fill="#39d353"/>
<rect x="1053" y="93" width="12" height="12" rx="3" fill="#26a641"/>
<rect x="1083" y="33" width="12" height="12" rx="3" fill="#26a641"/>
<rect x="1083" y="48" width="12" height="12" rx="3" fill="#39d353"/>
<rect x="1083" y="63" width="12" height="12" rx="3" fill="#26a641"/>
<rect x="1083" y="78" width="12" height="12" rx="3" fill="#006d32"/>
<rect x="1083" y="93" width="12" height="12" rx="3" fill="#26a641"/>
<rect x="1098" y="33" width="12" height="12" rx="3" fill="#006d32"/>
<rect x="1098" y="63" width="12" height="12" rx="3" fill="#39d353"/>
<rect x="1098" y="93" width="12" height="12" rx="3" fill="#006d32"/>
<rect x="1113" y="33" width="12" height="12" rx="3" fill="#26a641"/>
<rect x="1113" y="63" width="12" height="12" rx="3" fill="#26a641"/>
<rect x="1113" y="93" width="12" height="12" rx="3" fill="#26a641"/>
<rect x="1128" y="33" width="12" height="12" rx="3" fill="#39d353"/>
<rect x="1128" y="63" width="12" height="12" rx="3" fill="#006d32"/>
<rect x="1128" y="93" width="12" height="12" rx="3" fill="#39d353"/>
<rect x="1143" y="33" width="12" height="12" rx="3" fill="#26a641"/>
<rect x="1143" y="93" width="12" height="12" rx="3" fill="#26a641"/>
<rect x="1173" y="33" width="12" height="12" rx="3" fill="#26a641"/>
<rect x="1173" y="48" width="12" height="12" rx="3" fill="#006d32"/>
<rect x="1173" y="63" width="12" height="12" rx="3" fill="#26a641"/>
<rect x="1173" y="78" width="12" height="12" rx="3" fill="#39d353"/>
<rect x="1173" y="93" width="12" height="12" rx="3" fill="#26a641"/>
<rect x="1188" y="33" width="12" height="12" rx="3" fill="#39d353"/>
<rect x="1188" y="63" width="12" height="12" rx="3" fill="#006d32"/>
<rect x="1203" y="33" width="12" height="12" rx="3" fill="#26a641"/>
<rect x="1203" y="63" width="12" height="12" rx="3" fill="#26a641"/>
<rect x="1218" y="33" width="12" height="12" rx="3" fill="#006d32"/>
<rect x="1218" y="63" width="12" height="12" rx="3" fill="#39d353"/>
<rect x="1218" y="78" width="12" height="12" rx="3" fill="#26a641"/>
<rect x="1233" y="48" width="12" height="12" rx="3" fill="#006d32"/>
<rect x="1233" y="93" width="12" height="12" rx="3" fill="#26a641"/>
<rect x="1263" y="48" width="12" height="12" rx="3" fill="#39d353"/>
<rect x="1263" y="63" width="12" height="12" rx="3" fill="#26a641"/>
<rect x="1263" y="78" width="12" height="12" rx="3" fill="#006d32"/>
<rect x="1263" y="93" width="12" height="12" rx="3" fill="#26a641"/>
<rect x="1278" y="33" width="12" height="12" rx="3" fill="#006d32"/>
<rect x="1278" y="63" width="12" height="12" rx="3" fill="#39d353"/>
<rect x="1293" y="33" width="12" height="12" rx="3" fill="#26a641"/>
<rect x="1293" y="63" width="12" height="12" rx="3" fill="#26a641"/>
<rect x="1308" y="33" width="12" height="12" rx="3" fill="#39d353"/>
<rect x="1308" y="63" width="12" height="12" rx="3" fill="#006d32"/>
<rect x="1323" y="48" width="12" height="12" rx="3" fill="#39d353"/>
<rect x="1323" y="63" width="12" height="12" rx="3" fill="#26a641"/>
<rect x="1323" y="78" width="12" height="12" rx="3" fill="#006d32"/>
<rect x="1323" y="93" width="12" height="12" rx="3" fill="#26a641"/>
</g>
<text x="691.5" y="154" text-anchor="middle" font-family="'Segoe UI','Helvetica Neue',Arial,sans-serif" font-size="30" font-weight="600"><tspan fill="#e6edf3">Full Stack Developer</tspan><tspan fill="#3fb950">&#160;&#160;|&#160;&#160;</tspan><tspan fill="#e6edf3">India</tspan><tspan fill="#e6edf3">&#160;&#127470;&#127475;</tspan></text>
</svg>